{"title":"The Entity 1981 DVDrip English Klam","uid":6515480,"size":1574833529,"categoryP":"video","categoryS":"movies","magnet":"?xt=urn:btih:bff0ed79910c965b93eaca7e07efe5d054492135&amp;dn=The+Entity+1981+DVDrip+English+Klam&amp;tr=udp%3A%2F%2Ftracker.openbittorrent.com%3A80&amp;tr=udp%3A%2F%2Fopen.demonii.com%3A1337&amp;tr=udp%3A%2F%2Ftracker.coppersurfer.tk%3A6969&amp;tr=udp%3A%2F%2Fexodus.desync.com%3A6969","seeders":5,"leechers":0,"uploader":"Klambake","files":-1,"time":1309797872,"description":"With: Barbara Hershey, Ron Silver and David Labiosa\n\nCarla Moran wordt op een nacht vreselijk geslagen en verkracht door een onzichtbare kracht. Aangeslagen door wat haar is overkomen zoekt ze hulp, maar familie en vrienden geloven haar niet en denken dat ze geestelijk problemen heeft. Ze zoekt hulp bij paranormale experts en die komen erachter dat er wel degelijk boosaardige bovennatuurlijke krachten aan het werk zijn.\n\nSupposedly based partially on a true story, a woman is tormented and sexually molested by an invisible demon. \n\n------------------ Dutch Friends ------------------\nYou can find my Friends at: http://www.Film-Test.nl \n------ They got my dutchs subs ---- and more ------\n\nGeneral:\n\nComplete name                    : The Entity\\The Entity.avi\nFormat                           : AVI\nFormat/Info                      : Audio Video Interleave\nFile size                        : 1.47 GiB\nDuration                         : 2h 0mn\nOverall bit rate                 : 1 748 Kbps\n\nVideo:\n\nFormat                           : MPEG-4 Visual\nFormat profile                   : Simple@L3\nFormat settings, BVOP            : No\nFormat settings, QPel            : No\nFormat settings, GMC             : No warppoints\nFormat settings, Matrix          : Default (H.263)\nCodec ID                         : XVID\nCodec ID/Hint                    : XviD\nDuration                         : 1h 59mn\nBit rate                         : 1 353 Kbps\nWidth                            : 720 pixels\nHeight                           : 328 pixels\nDisplay aspect ratio             : 2.2:1\nFrame rate                       : 25.000 fps\nColor space                      : YUV\nChroma subsampling               : 4:2:0\nBit depth                        : 8 bits\nScan type                        : Progressive\nBits/(Pixel*Frame)               : 0.229\nStream size                      : 1.13 GiB (77%)\nWriting library                  : XviD 1.1.2 (UTC 2006-11-01)\n\nAudio:\n\nFormat                           : AC-3\nFormat/Info                      : Audio Coding 3\nMode extension                   : CM (complete main)\nCodec ID                         : 2000\nDuration                         : 2h 0mn\nBit rate mode                    : Constant\nBit rate                         : 384 Kbps\nChannel(s)                       : 5 channels\nChannel positions                : Front: L C R, Side: C, LFE\nSampling rate                    : 48.0 KHz\nBit depth                        : 16 bits\nStream size                      : 330 MiB (22%)\nAlignment                        : Aligned on interleaves\nInterleave, duration             : 32 ms (0.80 video frame)\nInterleave, preload duration     : 384 ms\n\n\n","torrent":{"xt":"urn:btih:bff0ed79910c965b93eaca7e07efe5d054492135","amp;dn":"The+Entity+1981+DVDrip+English+Klam","amp;tr":["udp%3A%2F%2Ftracker.openbittorrent.com%3A80","udp%3A%2F%2Fopen.demonii.com%3A1337","udp%3A%2F%2Ftracker.coppersurfer.tk%3A6969","udp%3A%2F%2Fexodus.desync.com%3A6969"],"infoHash":"bff0ed79910c965b93eaca7e07efe5d054492135","infoHashBuffer":{"type":"Buffer","data":[191,240,237,121,145,12,150,91,147,234,202,126,7,239,229,208,84,73,33,53]},"announce":[],"urlList":[]}}